<?xml version="1.0" standalone="no"?>
<!DOCTYPE svg PUBLIC "-//W3C//DTD SVG 20010904//EN"
 "http://www.w3.org/TR/2001/REC-SVG-20010904/DTD/svg10.dtd">
<svg version="1.0" xmlns="http://www.w3.org/2000/svg"
 width="700.000000pt" height="700.000000pt" viewBox="0 0 700.000000 700.000000"
 preserveAspectRatio="xMidYMid meet">
<metadata>
Created by potrace 1.14, written by Peter Selinger 2001-2017
</metadata>
<g transform="translate(0.000000,700.000000) scale(0.100000,-0.100000)"
fill="#000000" stroke="none">
<path d="M3387 6124 c-1 -1 -42 -5 -92 -9 -49 -3 -101 -8 -115 -10 -62 -8
-116 -16 -130 -20 -8 -2 -33 -6 -55 -10 -52 -7 -251 -60 -340 -90 -585 -196
-1100 -617 -1418 -1155 -63 -108 -137 -257 -137 -277 0 -7 -4 -13 -8 -13 -5 0
-13 -15 -19 -32 -6 -18 -28 -80 -48 -137 -20 -57 -38 -111 -40 -120 -2 -9 -11
-41 -19 -71 -58 -208 -89 -443 -89 -675 0 -115 7 -252 18 -325 2 -14 7 -45 10
-70 57 -410 236 -838 494 -1180 207 -276 510 -548 761 -686 19 -10 37 -22 40
-25 3 -3 70 -37 150 -76 549 -267 1139 -334 1745 -199 198 44 429 129 623 232
68 36 136 73 150 83 15 10 47 31 72 47 256 166 516 416 693 666 56 79 197 305
197 315 0 2 20 45 44 96 164 348 249 723 250 1107 0 92 -10 261 -19 328 -2 18
-7 52 -10 75 -27 195 -103 461 -185 647 -256 582 -697 1044 -1255 1315 -82 40
-163 77 -180 83 -16 6 -55 20 -85 32 -106 40 -332 100 -437 116 -21 3 -65 9
-98 14 -103 16 -457 34 -468 24z m218 -1208 c119 -9 144 -13 262 -45 137 -36
192 -58 301 -117 321 -173 569 -466 682 -809 52 -156 68 -267 65 -455 -1 -96
-5 -184 -7 -195 -3 -11 -9 -42 -13 -70 -12 -85 -83 -284 -136 -384 -222 -416
-604 -683 -1074 -751 -64 -9 -363 -6 -405 4 -14 4 -41 9 -60 12 -73 11 -239
67 -335 114 -239 116 -422 276 -575 503 -48 73 -140 254 -140 277 0 6 -4 18
-9 28 -12 22 -39 107 -46 147 -2 17 -7 41 -10 55 -16 70 -20 128 -20 270 0 85
3 175 7 200 5 25 11 63 14 85 11 75 85 280 136 375 106 200 274 391 438 500
12 8 32 22 44 31 45 35 214 119 297 147 117 41 261 71 377 78 53 4 99 8 100
10 2 1 9 1 15 -1 7 -2 48 -6 92 -9z"/>
</g>
</svg>
