<?xml version="1.0" standalone="no"?>
<!DOCTYPE svg PUBLIC "-//W3C//DTD SVG 20010904//EN"
 "http://www.w3.org/TR/2001/REC-SVG-20010904/DTD/svg10.dtd">
<svg version="1.0" xmlns="http://www.w3.org/2000/svg"
 width="700.000000pt" height="700.000000pt" viewBox="0 0 700.000000 700.000000"
 preserveAspectRatio="xMidYMid meet">
<metadata>
Created by potrace 1.14, written by Peter Selinger 2001-2017
</metadata>
<g transform="translate(0.000000,700.000000) scale(0.100000,-0.100000)"
fill="#000000" stroke="none">
<path d="M3387 6124 c-1 -1 -42 -5 -92 -9 -49 -3 -101 -8 -115 -10 -62 -8
-116 -16 -130 -20 -8 -2 -33 -6 -55 -10 -52 -7 -251 -60 -340 -90 -601 -202
-1124 -636 -1441 -1196 -106 -186 -225 -484 -259 -644 -49 -228 -54 -259 -71
-440 -13 -132 -7 -401 11 -525 2 -14 7 -45 10 -70 57 -410 236 -838 494 -1180
207 -275 512 -550 761 -686 19 -10 37 -22 40 -25 3 -3 66 -35 140 -72 549
-270 1144 -339 1755 -203 198 44 429 129 623 232 68 36 136 73 150 83 15 10
47 31 72 47 256 166 516 416 693 666 56 79 197 305 197 315 0 2 20 45 44 96
39 82 66 147 111 269 38 99 105 394 120 518 24 212 24 474 0 648 -2 18 -7 52
-10 75 -81 581 -398 1166 -850 1567 -210 187 -525 384 -751 470 -32 12 -81 31
-109 42 -103 39 -329 98 -432 114 -21 3 -65 9 -98 14 -103 16 -457 34 -468 24z
m333 -997 c14 -3 53 -9 87 -15 343 -58 705 -270 946 -553 131 -153 278 -423
318 -584 34 -134 49 -208 56 -270 10 -86 10 -330 1 -405 -78 -642 -536 -1183
-1158 -1372 -36 -10 -76 -21 -90 -24 -14 -3 -43 -9 -65 -14 -112 -25 -411 -35
-525 -18 -504 74 -925 347 -1188 770 -77 124 -177 363 -196 468 -2 14 -7 32
-10 40 -37 104 -42 540 -7 658 5 18 9 33 9 35 -3 7 28 123 49 187 74 217 220
453 381 618 260 266 621 443 977 479 33 3 62 7 64 9 6 5 318 -3 351 -9z"/>
</g>
</svg>
